<?xml version="1.0" encoding="UTF-8" standalone="no"?>
<!DOCTYPE svg PUBLIC "-//W3C//DTD SVG 1.1//EN"
 "http://www.w3.org/Graphics/SVG/1.1/DTD/svg11.dtd">
<!-- Generated by graphviz version 2.38.0 (20140413.2041)
 -->
<!-- Title: g Pages: 1 -->
<svg width="184pt" height="220pt"
 viewBox="0.00 0.00 184.00 220.00" xmlns="http://www.w3.org/2000/svg" xmlns:xlink="http://www.w3.org/1999/xlink">
<g id="graph0" class="graph" transform="scale(1 1) rotate(0) translate(4 216)">
<title>g</title>
<polygon fill="white" stroke="none" points="-4,4 -4,-216 180,-216 180,4 -4,4"/>
<g id="clust1" class="cluster"><title>cluster0</title>
<polygon fill="lightgrey" stroke="lightgrey" points="8,-8 8,-204 168,-204 168,-8 8,-8"/>
</g>
<!-- a -->
<g id="node1" class="node"><title>a</title>
<ellipse fill="white" stroke="black" cx="115" cy="-178" rx="18" ry="18"/>
<text text-anchor="middle" x="115" y="-173.8" font-family="Times,serif" font-size="14.00">1</text>
</g>
<!-- b -->
<g id="node2" class="node"><title>b</title>
<ellipse fill="white" stroke="black" cx="88" cy="-106" rx="18" ry="18"/>
<text text-anchor="middle" x="88" y="-101.8" font-family="Times,serif" font-size="14.00">2</text>
</g>
<!-- a&#45;&gt;b -->
<g id="edge1" class="edge"><title>a&#45;&gt;b</title>
<path fill="none" stroke="black" d="M104.162,-163.17C99.7696,-154.743 95.1503,-143.693 91.6947,-133.626"/>
<polygon fill="black" stroke="black" points="95.0133,-132.511 88.6784,-124.019 88.3348,-134.608 95.0133,-132.511"/>
</g>
<!-- u -->
<g id="node5" class="node"><title>u</title>
<ellipse fill="white" stroke="black" cx="142" cy="-106" rx="18" ry="18"/>
<text text-anchor="middle" x="142" y="-101.8" font-family="Times,serif" font-size="14.00">5</text>
</g>
<!-- a&#45;&gt;u -->
<g id="edge5" class="edge"><title>a&#45;&gt;u</title>
<path fill="none" stroke="black" d="M121.262,-160.765C124.5,-152.371 128.525,-141.934 132.166,-132.495"/>
<polygon fill="black" stroke="black" points="135.438,-133.737 135.772,-123.147 128.907,-131.218 135.438,-133.737"/>
</g>
<!-- b&#45;&gt;a -->
<g id="edge9" class="edge"><title>b&#45;&gt;a</title>
<path fill="none" stroke="black" d="M98.8353,-120.825C103.194,-129.185 107.776,-140.13 111.223,-150.135"/>
<polygon fill="black" stroke="black" points="107.893,-151.214 114.242,-159.697 114.569,-149.107 107.893,-151.214"/>
</g>
<!-- c -->
<g id="node3" class="node"><title>c</title>
<ellipse fill="white" stroke="black" cx="34" cy="-34" rx="18" ry="18"/>
<text text-anchor="middle" x="34" y="-29.8" font-family="Times,serif" font-size="14.00">3</text>
</g>
<!-- b&#45;&gt;c -->
<g id="edge2" class="edge"><title>b&#45;&gt;c</title>
<path fill="none" stroke="black" d="M77.3313,-91.1703C69.7874,-81.391 59.5188,-68.0799 50.8713,-56.8702"/>
<polygon fill="black" stroke="black" points="53.5258,-54.581 44.6465,-48.801 47.9833,-58.8567 53.5258,-54.581"/>
</g>
<!-- d -->
<g id="node4" class="node"><title>d</title>
<ellipse fill="white" stroke="black" cx="88" cy="-34" rx="18" ry="18"/>
<text text-anchor="middle" x="88" y="-29.8" font-family="Times,serif" font-size="14.00">4</text>
</g>
<!-- b&#45;&gt;d -->
<g id="edge3" class="edge"><title>b&#45;&gt;d</title>
<path fill="none" stroke="black" d="M88,-77.6651C88,-69.0537 88,-59.7913 88,-52.1043"/>
<polygon fill="black" stroke="black" points="84.5001,-77.6966 88,-87.6966 91.5001,-77.6967 84.5001,-77.6966"/>
</g>
<!-- c&#45;&gt;d -->
<g id="edge4" class="edge"><title>c&#45;&gt;d</title>
<path fill="none" stroke="black" d="M52.1406,-34C54.6226,-34 57.1046,-34 59.5865,-34"/>
<polygon fill="black" stroke="black" points="59.7902,-37.5001 69.7902,-34 59.7901,-30.5001 59.7902,-37.5001"/>
</g>
<!-- v -->
<g id="node6" class="node"><title>v</title>
<ellipse fill="white" stroke="black" cx="142" cy="-34" rx="18" ry="18"/>
<text text-anchor="middle" x="142" y="-29.8" font-family="Times,serif" font-size="14.00">6</text>
</g>
<!-- u&#45;&gt;v -->
<g id="edge6" class="edge"><title>u&#45;&gt;v</title>
<path fill="none" stroke="black" d="M136.199,-88.7646C135.287,-80.6365 135.032,-70.5915 135.435,-61.3923"/>
<polygon fill="black" stroke="black" points="138.945,-61.3827 136.209,-51.1473 131.965,-60.8551 138.945,-61.3827"/>
</g>
<!-- v&#45;&gt;d -->
<g id="edge8" class="edge"><title>v&#45;&gt;d</title>
<path fill="none" stroke="black" d="M123.79,-34C121.308,-34 118.826,-34 116.344,-34"/>
<polygon fill="black" stroke="black" points="116.141,-30.5001 106.141,-34 116.141,-37.5001 116.141,-30.5001"/>
</g>
<!-- v&#45;&gt;u -->
<g id="edge7" class="edge"><title>v&#45;&gt;u</title>
<path fill="none" stroke="black" d="M147.791,-51.1473C148.708,-59.2615 148.967,-69.3027 148.57,-78.5079"/>
<polygon fill="black" stroke="black" points="145.058,-78.531 147.801,-88.7646 152.038,-79.0542 145.058,-78.531"/>
</g>
</g>
</svg>
